<?xml version="1.0" encoding="UTF-8"?>
<svg width="32" height="32" viewBox="0 0 32 32" fill="none" xmlns="http://www.w3.org/2000/svg">
  <!-- Background -->
  <rect width="32" height="32" rx="4" fill="#1B4332"/>
  
  <!-- QW Text - Moved up -->
  <text x="16" y="11" font-family="Arial Black, sans-serif" font-size="10" fill="white" text-anchor="middle" font-weight="bold">QW</text>
  
  <!-- Music Note Icon - Moved down -->
  <path d="M20 25.5C20 26.8807 18.8807 28 17.5 28C16.1193 28 15 26.8807 15 25.5C15 24.1193 16.1193 23 17.5 23C18.8807 23 20 24.1193 20 25.5ZM12 24.5C12 25.8807 10.8807 27 9.5 27C8.11929 27 7 25.8807 7 24.5C7 23.1193 8.11929 22 9.5 22C10.8807 22 12 23.1193 12 24.5ZM19 15V25.5C19 26.3284 18.3284 27 17.5 27C16.6716 27 16 26.3284 16 25.5C16 24.6716 16.6716 24 17.5 24C17.8357 24 18.1494 24.0969 18.4142 24.2679L18.5 24.3229V15.7639L11 17.7639V24.5C11 25.3284 10.3284 26 9.5 26C8.67157 26 8 25.3284 8 24.5C8 23.6716 8.67157 23 9.5 23C9.83571 23 10.1494 23.0969 10.4142 23.2679L10.5 23.3229V16.618C10.5 16.2393 10.7321 15.9157 11.0858 15.8101L19.0858 13.6601C19.4891 13.5392 19.9224 13.7433 20.0772 14.136C20.1409 14.2797 20.1486 14.4393 20.0994 14.5877L20.0858 14.6601L19.0858 15.8101C19.0372 15.8344 18.9897 15.8605 18.9435 15.8885L19 15V15Z" fill="white"/></svg>
